<mxfile host="app.diagrams.net" modified="2021-01-24T07:43:54.406Z" agent="5.0 (Windows NT 10.0; Win64; x64) AppleWebKit/537.36 (KHTML, like Gecko) Chrome/87.0.4280.141 Safari/537.36" etag="xHFRoNIjlVbCKjxihR9V" version="14.2.4" type="github">
  <diagram id="kgpKYQtTHZ0yAKxKKP6v" name="Page-1">
    <mxGraphModel dx="1038" dy="585" grid="1" gridSize="10" guides="1" tooltips="1" connect="1" arrows="1" fold="1" page="1" pageScale="1" pageWidth="850" pageHeight="1100" math="0" shadow="0">
      <root>
        <mxCell id="0" />
        <mxCell id="1" parent="0" />
        <mxCell id="3nuBFxr9cyL0pnOWT2aG-1" value="AbstractBeanFactory" style="shape=umlLifeline;perimeter=lifelinePerimeter;container=1;collapsible=0;recursiveResize=0;rounded=0;shadow=0;strokeWidth=1;" parent="1" vertex="1">
          <mxGeometry x="70" y="80" width="150" height="610" as="geometry" />
        </mxCell>
        <mxCell id="3nuBFxr9cyL0pnOWT2aG-3" value="doGetBean()" style="verticalAlign=bottom;startArrow=oval;endArrow=block;startSize=8;shadow=0;strokeWidth=1;" parent="3nuBFxr9cyL0pnOWT2aG-1" edge="1">
          <mxGeometry relative="1" as="geometry">
            <mxPoint x="-15" y="70" as="sourcePoint" />
            <mxPoint x="70" y="70" as="targetPoint" />
            <Array as="points">
              <mxPoint x="40" y="70" />
            </Array>
          </mxGeometry>
        </mxCell>
        <mxCell id="uegnCNwDO8y2MtFvX5zh-10" value="" style="html=1;points=[];perimeter=orthogonalPerimeter;" vertex="1" parent="3nuBFxr9cyL0pnOWT2aG-1">
          <mxGeometry x="70" y="70" width="10" height="450" as="geometry" />
        </mxCell>
        <mxCell id="3nuBFxr9cyL0pnOWT2aG-5" value="AbstractAutowireCapableBeanFactory" style="shape=umlLifeline;perimeter=lifelinePerimeter;container=1;collapsible=0;recursiveResize=0;rounded=0;shadow=0;strokeWidth=1;" parent="1" vertex="1">
          <mxGeometry x="300" y="80" width="210" height="590" as="geometry" />
        </mxCell>
        <mxCell id="uegnCNwDO8y2MtFvX5zh-11" value="" style="html=1;points=[];perimeter=orthogonalPerimeter;" vertex="1" parent="3nuBFxr9cyL0pnOWT2aG-5">
          <mxGeometry x="100" y="80" width="10" height="440" as="geometry" />
        </mxCell>
        <mxCell id="uegnCNwDO8y2MtFvX5zh-17" value="doCreateBean()" style="edgeStyle=orthogonalEdgeStyle;html=1;align=left;spacingLeft=2;endArrow=block;rounded=0;entryX=1;entryY=0;" edge="1" parent="3nuBFxr9cyL0pnOWT2aG-5">
          <mxGeometry relative="1" as="geometry">
            <mxPoint x="110" y="110" as="sourcePoint" />
            <Array as="points">
              <mxPoint x="135" y="110" />
            </Array>
            <mxPoint x="115" y="130" as="targetPoint" />
          </mxGeometry>
        </mxCell>
        <mxCell id="uegnCNwDO8y2MtFvX5zh-19" value="createBeanInstance()" style="edgeStyle=orthogonalEdgeStyle;html=1;align=left;spacingLeft=2;endArrow=block;rounded=0;entryX=1;entryY=0;" edge="1" parent="3nuBFxr9cyL0pnOWT2aG-5">
          <mxGeometry relative="1" as="geometry">
            <mxPoint x="110" y="155" as="sourcePoint" />
            <Array as="points">
              <mxPoint x="110" y="155" />
              <mxPoint x="135" y="155" />
              <mxPoint x="135" y="195" />
            </Array>
            <mxPoint x="115" y="195" as="targetPoint" />
          </mxGeometry>
        </mxCell>
        <mxCell id="uegnCNwDO8y2MtFvX5zh-20" value="" style="html=1;points=[];perimeter=orthogonalPerimeter;" vertex="1" parent="3nuBFxr9cyL0pnOWT2aG-5">
          <mxGeometry x="104" y="126" width="10" height="40" as="geometry" />
        </mxCell>
        <mxCell id="uegnCNwDO8y2MtFvX5zh-25" value="" style="html=1;points=[];perimeter=orthogonalPerimeter;" vertex="1" parent="3nuBFxr9cyL0pnOWT2aG-5">
          <mxGeometry x="104" y="270" width="10" height="40" as="geometry" />
        </mxCell>
        <mxCell id="uegnCNwDO8y2MtFvX5zh-26" value="populateBean()" style="edgeStyle=orthogonalEdgeStyle;html=1;align=left;spacingLeft=2;endArrow=block;rounded=0;entryX=1;entryY=0;" edge="1" target="uegnCNwDO8y2MtFvX5zh-25" parent="3nuBFxr9cyL0pnOWT2aG-5">
          <mxGeometry relative="1" as="geometry">
            <mxPoint x="109" y="250" as="sourcePoint" />
            <Array as="points">
              <mxPoint x="134" y="250" />
            </Array>
          </mxGeometry>
        </mxCell>
        <mxCell id="uegnCNwDO8y2MtFvX5zh-38" value="" style="html=1;points=[];perimeter=orthogonalPerimeter;" vertex="1" parent="3nuBFxr9cyL0pnOWT2aG-5">
          <mxGeometry x="104" y="350" width="10" height="40" as="geometry" />
        </mxCell>
        <mxCell id="uegnCNwDO8y2MtFvX5zh-39" value="initializeBean()" style="edgeStyle=orthogonalEdgeStyle;html=1;align=left;spacingLeft=2;endArrow=block;rounded=0;entryX=1;entryY=0;" edge="1" target="uegnCNwDO8y2MtFvX5zh-38" parent="3nuBFxr9cyL0pnOWT2aG-5">
          <mxGeometry relative="1" as="geometry">
            <mxPoint x="109" y="330" as="sourcePoint" />
            <Array as="points">
              <mxPoint x="134" y="330" />
            </Array>
          </mxGeometry>
        </mxCell>
        <mxCell id="uegnCNwDO8y2MtFvX5zh-54" value="doCreateBean()" style="html=1;verticalAlign=bottom;endArrow=block;" edge="1" parent="3nuBFxr9cyL0pnOWT2aG-5" source="3nuBFxr9cyL0pnOWT2aG-5">
          <mxGeometry width="80" relative="1" as="geometry">
            <mxPoint x="-20" y="300" as="sourcePoint" />
            <mxPoint x="100" y="130" as="targetPoint" />
            <Array as="points">
              <mxPoint x="-20" y="280" />
              <mxPoint x="-20" y="130" />
            </Array>
          </mxGeometry>
        </mxCell>
        <mxCell id="uegnCNwDO8y2MtFvX5zh-15" value="createBean()" style="html=1;verticalAlign=bottom;endArrow=block;" edge="1" parent="1" target="3nuBFxr9cyL0pnOWT2aG-5">
          <mxGeometry width="80" relative="1" as="geometry">
            <mxPoint x="150" y="160" as="sourcePoint" />
            <mxPoint x="330" y="158" as="targetPoint" />
          </mxGeometry>
        </mxCell>
        <mxCell id="uegnCNwDO8y2MtFvX5zh-22" value="" style="html=1;points=[];perimeter=orthogonalPerimeter;" vertex="1" parent="1">
          <mxGeometry x="404" y="270" width="10" height="40" as="geometry" />
        </mxCell>
        <mxCell id="uegnCNwDO8y2MtFvX5zh-29" value="" style="edgeStyle=orthogonalEdgeStyle;rounded=0;orthogonalLoop=1;jettySize=auto;html=1;entryX=0.6;entryY=0.625;entryDx=0;entryDy=0;entryPerimeter=0;" edge="1" parent="1" source="uegnCNwDO8y2MtFvX5zh-27" target="uegnCNwDO8y2MtFvX5zh-25">
          <mxGeometry relative="1" as="geometry">
            <mxPoint x="420" y="375" as="targetPoint" />
          </mxGeometry>
        </mxCell>
        <mxCell id="uegnCNwDO8y2MtFvX5zh-27" value="包含依赖注入逻辑&lt;br&gt;递归调用doCreateBean()&lt;br&gt;" style="html=1;dropTarget=0;" vertex="1" parent="1">
          <mxGeometry x="650" y="330" width="180" height="90" as="geometry" />
        </mxCell>
        <mxCell id="uegnCNwDO8y2MtFvX5zh-28" value="" style="shape=module;jettyWidth=8;jettyHeight=4;" vertex="1" parent="uegnCNwDO8y2MtFvX5zh-27">
          <mxGeometry x="1" width="20" height="20" relative="1" as="geometry">
            <mxPoint x="-27" y="7" as="offset" />
          </mxGeometry>
        </mxCell>
        <mxCell id="uegnCNwDO8y2MtFvX5zh-37" value="" style="edgeStyle=orthogonalEdgeStyle;rounded=0;orthogonalLoop=1;jettySize=auto;html=1;" edge="1" parent="1" source="uegnCNwDO8y2MtFvX5zh-34">
          <mxGeometry relative="1" as="geometry">
            <mxPoint x="414" y="291" as="targetPoint" />
            <Array as="points">
              <mxPoint x="600" y="230" />
              <mxPoint x="600" y="291" />
            </Array>
          </mxGeometry>
        </mxCell>
        <mxCell id="uegnCNwDO8y2MtFvX5zh-34" value="bean实例化方式" style="html=1;dropTarget=0;" vertex="1" parent="1">
          <mxGeometry x="650" y="185" width="180" height="90" as="geometry" />
        </mxCell>
        <mxCell id="uegnCNwDO8y2MtFvX5zh-35" value="" style="shape=module;jettyWidth=8;jettyHeight=4;" vertex="1" parent="uegnCNwDO8y2MtFvX5zh-34">
          <mxGeometry x="1" width="20" height="20" relative="1" as="geometry">
            <mxPoint x="-27" y="7" as="offset" />
          </mxGeometry>
        </mxCell>
        <mxCell id="uegnCNwDO8y2MtFvX5zh-43" style="edgeStyle=orthogonalEdgeStyle;rounded=0;orthogonalLoop=1;jettySize=auto;html=1;" edge="1" parent="1" source="uegnCNwDO8y2MtFvX5zh-40" target="uegnCNwDO8y2MtFvX5zh-38">
          <mxGeometry relative="1" as="geometry" />
        </mxCell>
        <mxCell id="uegnCNwDO8y2MtFvX5zh-40" value="bean初始化&lt;br&gt;beanPostProcessor--before&lt;br&gt;initMethod&lt;br&gt;beanPostProcessor-after" style="html=1;dropTarget=0;" vertex="1" parent="1">
          <mxGeometry x="650" y="450" width="180" height="90" as="geometry" />
        </mxCell>
        <mxCell id="uegnCNwDO8y2MtFvX5zh-41" value="" style="shape=module;jettyWidth=8;jettyHeight=4;" vertex="1" parent="uegnCNwDO8y2MtFvX5zh-40">
          <mxGeometry x="1" width="20" height="20" relative="1" as="geometry">
            <mxPoint x="-27" y="7" as="offset" />
          </mxGeometry>
        </mxCell>
      </root>
    </mxGraphModel>
  </diagram>
</mxfile>
